<svg width="24" height="35" viewBox="0 0 24 35" fill="none" xmlns="http://www.w3.org/2000/svg">
<path d="M12 35L23.547 15L0.452995 15L12 35ZM10 8.74228e-08L10 10.5L14 10.5L14 -8.74228e-08L10 8.74228e-08ZM10 10.5L10 17L14 17L14 10.5L10 10.5Z" fill="#6D3434"/>
<path d="M12 35L23.547 15L0.452995 15L12 35ZM10 8.74228e-08L10 10.5L14 10.5L14 -8.74228e-08L10 8.74228e-08ZM10 10.5L10 17L14 17L14 10.5L10 10.5Z" fill="#6D3434"/>
<path d="M12 35L23.547 15L0.452995 15L12 35ZM10 8.74228e-08L10 10.5L14 10.5L14 -8.74228e-08L10 8.74228e-08ZM10 10.5L10 17L14 17L14 10.5L10 10.5Z" fill="white"/>
</svg>
