<svg width="579" height="582" viewBox="0 0 579 582" fill="none" xmlns="http://www.w3.org/2000/svg">
<g filter="url(#filter0_d_208_200)">
<path fill-rule="evenodd" clip-rule="evenodd" d="M8.51796 223.24L232.639 389.708C230.98 415.425 229.901 472.85 230.873 483.51C239.015 572.869 295.409 534.379 295.932 494.498C296.075 483.591 298.03 427.172 298.215 389.504L519.41 219.165L519.997 165.838L291.651 270.1L283.399 104.272L349.614 56.8976L350.035 22L262.682 45.9488L262.666 45.6607L174.401 23.1098L175.453 57.9769L242.518 104.238L237.121 270.191L7 170.01L8.51796 223.24Z" fill="white"/>
<path d="M271.059 276.007C271.059 276.191 271.051 276.444 271.037 276.766C271.029 277.089 271.018 277.437 271.004 277.811C270.996 278.178 270.985 278.537 270.971 278.889C270.956 279.234 270.941 279.52 270.927 279.747C270.472 279.667 269.893 279.557 269.189 279.417C268.485 279.271 267.704 279.102 266.846 278.911C265.988 278.721 265.093 278.519 264.162 278.306C263.223 278.094 262.292 277.874 261.368 277.646C260.444 277.419 259.567 277.199 258.739 276.986C257.91 276.774 257.173 276.576 256.528 276.392C256.432 275.652 256.355 274.922 256.297 274.203C256.231 273.477 256.198 272.773 256.198 272.091C256.198 271.703 256.209 271.314 256.231 270.925C256.253 270.537 256.289 270.152 256.341 269.77C256.986 269.631 257.727 269.488 258.563 269.341C259.399 269.195 260.385 269.048 261.522 268.901C262.651 268.747 263.982 268.597 265.515 268.45C267.04 268.296 268.818 268.142 270.85 267.988C270.879 268.23 270.912 268.575 270.949 269.022C270.985 269.47 271.011 269.939 271.026 270.43C271.048 270.914 271.059 271.347 271.059 271.728C270.846 271.743 270.604 271.758 270.333 271.772C270.061 271.78 269.772 271.791 269.464 271.805C269.156 271.82 268.844 271.835 268.529 271.849C268.213 271.857 267.909 271.864 267.616 271.871C267.322 271.879 267.051 271.886 266.802 271.893C266.809 272.128 266.82 272.381 266.835 272.652C266.842 272.924 266.857 273.199 266.879 273.477C266.893 273.749 266.912 274.005 266.934 274.247C266.948 274.489 266.967 274.702 266.989 274.885C267.011 275.069 267.029 275.201 267.044 275.281C267.542 275.391 268.045 275.494 268.551 275.589C269.057 275.685 269.53 275.769 269.97 275.842C270.402 275.916 270.765 275.971 271.059 276.007ZM263.997 274.83C263.967 274.662 263.934 274.398 263.898 274.038C263.861 273.679 263.832 273.305 263.81 272.916C263.788 272.528 263.773 272.212 263.766 271.97C263.612 271.985 263.322 272.003 262.897 272.025C262.464 272.04 261.995 272.062 261.489 272.091C260.975 272.121 260.506 272.15 260.081 272.179C259.648 272.201 259.351 272.223 259.19 272.245C259.19 272.363 259.197 272.539 259.212 272.773C259.226 273.008 259.241 273.235 259.256 273.455C259.27 273.675 259.285 273.829 259.3 273.917C259.512 273.961 259.809 274.024 260.191 274.104C260.565 274.178 260.983 274.258 261.445 274.346C261.907 274.434 262.361 274.522 262.809 274.61C263.249 274.691 263.645 274.764 263.997 274.83ZM271.092 262.508C271.092 262.794 271.088 263.135 271.081 263.531C271.073 263.92 271.059 264.316 271.037 264.719C271.015 265.115 270.985 265.475 270.949 265.797C270.472 265.812 269.863 265.827 269.123 265.841C268.375 265.856 267.579 265.871 266.736 265.885C265.892 265.893 265.089 265.896 264.327 265.896C263.153 265.896 261.899 265.889 260.565 265.874C259.23 265.852 257.848 265.827 256.418 265.797C256.41 265.673 256.407 265.475 256.407 265.203C256.399 264.932 256.392 264.628 256.385 264.29C256.37 263.946 256.363 263.616 256.363 263.3C256.355 262.978 256.352 262.706 256.352 262.486C257.136 262.442 258.009 262.406 258.97 262.376C259.923 262.347 260.898 262.325 261.896 262.31C262.893 262.296 263.85 262.288 264.767 262.288C265.221 262.288 265.694 262.292 266.186 262.299C266.677 262.299 267.165 262.303 267.649 262.31C268.133 262.318 268.595 262.332 269.035 262.354C269.475 262.376 269.874 262.398 270.234 262.42C270.586 262.442 270.872 262.472 271.092 262.508ZM271.169 259.46C270.347 259.504 269.343 259.559 268.155 259.625C266.959 259.684 265.683 259.75 264.327 259.823C262.963 259.889 261.61 259.955 260.268 260.021C258.918 260.087 257.683 260.146 256.561 260.197C256.531 259.911 256.502 259.544 256.473 259.097C256.443 258.65 256.414 258.166 256.385 257.645C256.355 257.124 256.33 256.615 256.308 256.116C256.286 255.617 256.275 255.174 256.275 254.785C256.275 254.22 256.33 253.656 256.44 253.091C256.542 252.519 256.726 251.998 256.99 251.529C257.254 251.052 257.631 250.671 258.123 250.385C258.607 250.099 259.234 249.956 260.004 249.956C260.759 249.956 261.47 250.15 262.138 250.539C262.805 250.92 263.289 251.43 263.59 252.068C263.905 251.899 264.286 251.712 264.734 251.507C265.181 251.302 265.661 251.096 266.175 250.891C266.688 250.678 267.198 250.477 267.704 250.286C268.202 250.095 268.661 249.927 269.079 249.78C269.497 249.626 269.838 249.512 270.102 249.439C270.234 249.652 270.358 249.938 270.476 250.297C270.593 250.649 270.699 251.012 270.795 251.386C270.883 251.76 270.956 252.086 271.015 252.365C271.073 252.636 271.103 252.801 271.103 252.86C270.809 252.919 270.424 253.01 269.948 253.135C269.471 253.26 268.954 253.403 268.397 253.564C267.839 253.725 267.293 253.89 266.758 254.059C266.215 254.22 265.731 254.371 265.306 254.51C264.88 254.649 264.565 254.759 264.36 254.84C264.396 255.009 264.429 255.181 264.459 255.357C264.488 255.526 264.51 255.687 264.525 255.841C264.539 255.988 264.55 256.123 264.558 256.248C264.726 256.219 265.005 256.189 265.394 256.16C265.775 256.123 266.219 256.087 266.725 256.05C267.231 256.013 267.751 255.98 268.287 255.951C268.815 255.914 269.313 255.885 269.783 255.863C270.252 255.834 270.637 255.815 270.938 255.808C271.004 256.101 271.051 256.461 271.081 256.886C271.117 257.304 271.139 257.74 271.147 258.195C271.161 258.642 271.169 259.064 271.169 259.46ZM261.918 256.545C261.918 256.318 261.91 256.087 261.896 255.852C261.874 255.61 261.833 255.324 261.775 254.994C261.694 254.517 261.584 254.136 261.445 253.85C261.298 253.564 261.115 253.359 260.895 253.234C260.667 253.102 260.403 253.036 260.103 253.036C259.699 253.036 259.41 253.128 259.234 253.311C259.05 253.494 258.933 253.747 258.882 254.07C258.83 254.385 258.805 254.756 258.805 255.181C258.805 255.298 258.812 255.438 258.827 255.599C258.834 255.76 258.845 255.922 258.86 256.083C258.874 256.244 258.889 256.391 258.904 256.523C258.911 256.655 258.918 256.75 258.926 256.809C259.05 256.802 259.215 256.787 259.421 256.765C259.626 256.743 259.853 256.721 260.103 256.699C260.345 256.677 260.587 256.659 260.829 256.644C261.063 256.622 261.28 256.604 261.478 256.589C261.668 256.567 261.815 256.552 261.918 256.545ZM270.96 236.877L270.784 240.65C269.2 240.672 267.608 240.709 266.01 240.76C264.404 240.811 262.809 240.866 261.225 240.925C259.641 240.984 258.086 241.05 256.561 241.123C256.517 240.324 256.491 239.546 256.484 238.791C256.469 238.036 256.465 237.324 256.473 236.657C256.473 235.821 256.506 235.069 256.572 234.402C256.638 233.727 256.718 233.148 256.814 232.664C257.327 232.62 257.862 232.587 258.42 232.565C258.97 232.543 259.443 232.532 259.839 232.532C259.817 232.811 259.787 233.225 259.751 233.775C259.714 234.318 259.681 234.934 259.652 235.623C259.615 236.305 259.597 237.005 259.597 237.724C259.773 237.702 259.996 237.684 260.268 237.669C260.532 237.647 260.81 237.625 261.104 237.603C261.39 237.581 261.657 237.566 261.907 237.559C261.907 237.053 261.925 236.521 261.962 235.964C261.991 235.399 262.031 234.89 262.083 234.435C262.134 233.973 262.174 233.647 262.204 233.456C262.636 233.456 263.091 233.463 263.568 233.478C264.037 233.485 264.528 233.507 265.042 233.544C265.005 233.859 264.972 234.233 264.943 234.666C264.906 235.099 264.877 235.546 264.855 236.008C264.833 236.47 264.822 236.903 264.822 237.306C265.423 237.247 266.076 237.192 266.78 237.141C267.484 237.082 268.195 237.031 268.914 236.987C269.625 236.943 270.307 236.906 270.96 236.877ZM271.169 230.22C270.347 230.264 269.343 230.319 268.155 230.385C266.959 230.443 265.683 230.509 264.327 230.583C262.963 230.649 261.61 230.715 260.268 230.781C258.918 230.847 257.683 230.905 256.561 230.957C256.531 230.671 256.502 230.304 256.473 229.857C256.443 229.409 256.414 228.925 256.385 228.405C256.355 227.884 256.33 227.374 256.308 226.876C256.286 226.377 256.275 225.933 256.275 225.545C256.275 224.98 256.33 224.415 256.44 223.851C256.542 223.279 256.726 222.758 256.99 222.289C257.254 221.812 257.631 221.431 258.123 221.145C258.607 220.859 259.234 220.716 260.004 220.716C260.759 220.716 261.47 220.91 262.138 221.299C262.805 221.68 263.289 222.19 263.59 222.828C263.905 222.659 264.286 222.472 264.734 222.267C265.181 222.061 265.661 221.856 266.175 221.651C266.688 221.438 267.198 221.236 267.704 221.046C268.202 220.855 268.661 220.686 269.079 220.54C269.497 220.386 269.838 220.272 270.102 220.199C270.234 220.411 270.358 220.697 270.476 221.057C270.593 221.409 270.699 221.772 270.795 222.146C270.883 222.52 270.956 222.846 271.015 223.125C271.073 223.396 271.103 223.561 271.103 223.62C270.809 223.678 270.424 223.77 269.948 223.895C269.471 224.019 268.954 224.162 268.397 224.324C267.839 224.485 267.293 224.65 266.758 224.819C266.215 224.98 265.731 225.13 265.306 225.27C264.88 225.409 264.565 225.519 264.36 225.6C264.396 225.768 264.429 225.941 264.459 226.117C264.488 226.285 264.51 226.447 264.525 226.601C264.539 226.747 264.55 226.883 264.558 227.008C264.726 226.978 265.005 226.949 265.394 226.92C265.775 226.883 266.219 226.846 266.725 226.81C267.231 226.773 267.751 226.74 268.287 226.711C268.815 226.674 269.313 226.645 269.783 226.623C270.252 226.593 270.637 226.575 270.938 226.568C271.004 226.861 271.051 227.22 271.081 227.646C271.117 228.064 271.139 228.5 271.147 228.955C271.161 229.402 271.169 229.824 271.169 230.22ZM261.918 227.305C261.918 227.077 261.91 226.846 261.896 226.612C261.874 226.37 261.833 226.084 261.775 225.754C261.694 225.277 261.584 224.896 261.445 224.61C261.298 224.324 261.115 224.118 260.895 223.994C260.667 223.862 260.403 223.796 260.103 223.796C259.699 223.796 259.41 223.887 259.234 224.071C259.05 224.254 258.933 224.507 258.882 224.83C258.83 225.145 258.805 225.515 258.805 225.941C258.805 226.058 258.812 226.197 258.827 226.359C258.834 226.52 258.845 226.681 258.86 226.843C258.874 227.004 258.889 227.151 258.904 227.283C258.911 227.415 258.918 227.51 258.926 227.569C259.05 227.561 259.215 227.547 259.421 227.525C259.626 227.503 259.853 227.481 260.103 227.459C260.345 227.437 260.587 227.418 260.829 227.404C261.063 227.382 261.28 227.363 261.478 227.349C261.668 227.327 261.815 227.312 261.918 227.305ZM271.059 215.636C271.059 215.82 271.051 216.073 271.037 216.395C271.029 216.718 271.018 217.066 271.004 217.44C270.996 217.807 270.985 218.166 270.971 218.518C270.956 218.863 270.941 219.149 270.927 219.376C270.472 219.296 269.893 219.186 269.189 219.046C268.485 218.9 267.704 218.731 266.846 218.54C265.988 218.35 265.093 218.148 264.162 217.935C263.223 217.723 262.292 217.503 261.368 217.275C260.444 217.048 259.567 216.828 258.739 216.615C257.91 216.403 257.173 216.205 256.528 216.021C256.432 215.281 256.355 214.551 256.297 213.832C256.231 213.106 256.198 212.402 256.198 211.72C256.198 211.332 256.209 210.943 256.231 210.554C256.253 210.166 256.289 209.781 256.341 209.399C256.986 209.26 257.727 209.117 258.563 208.97C259.399 208.824 260.385 208.677 261.522 208.53C262.651 208.376 263.982 208.226 265.515 208.079C267.04 207.925 268.818 207.771 270.85 207.617C270.879 207.859 270.912 208.204 270.949 208.651C270.985 209.099 271.011 209.568 271.026 210.059C271.048 210.543 271.059 210.976 271.059 211.357C270.846 211.372 270.604 211.387 270.333 211.401C270.061 211.409 269.772 211.42 269.464 211.434C269.156 211.449 268.844 211.464 268.529 211.478C268.213 211.486 267.909 211.493 267.616 211.5C267.322 211.508 267.051 211.515 266.802 211.522C266.809 211.757 266.82 212.01 266.835 212.281C266.842 212.553 266.857 212.828 266.879 213.106C266.893 213.378 266.912 213.634 266.934 213.876C266.948 214.118 266.967 214.331 266.989 214.514C267.011 214.698 267.029 214.83 267.044 214.91C267.542 215.02 268.045 215.123 268.551 215.218C269.057 215.314 269.53 215.398 269.97 215.471C270.402 215.545 270.765 215.6 271.059 215.636ZM263.997 214.459C263.967 214.291 263.934 214.027 263.898 213.667C263.861 213.308 263.832 212.934 263.81 212.545C263.788 212.157 263.773 211.841 263.766 211.599C263.612 211.614 263.322 211.632 262.897 211.654C262.464 211.669 261.995 211.691 261.489 211.72C260.975 211.75 260.506 211.779 260.081 211.808C259.648 211.83 259.351 211.852 259.19 211.874C259.19 211.992 259.197 212.168 259.212 212.402C259.226 212.637 259.241 212.864 259.256 213.084C259.27 213.304 259.285 213.458 259.3 213.546C259.512 213.59 259.809 213.653 260.191 213.733C260.565 213.807 260.983 213.887 261.445 213.975C261.907 214.063 262.361 214.151 262.809 214.239C263.249 214.32 263.645 214.393 263.997 214.459ZM270.96 201.829C270.967 202.277 270.956 202.749 270.927 203.248C270.905 203.74 270.875 204.194 270.839 204.612C270.802 205.03 270.769 205.353 270.74 205.58C270.666 205.58 270.465 205.58 270.135 205.58C269.805 205.58 269.383 205.58 268.87 205.58C268.356 205.58 267.788 205.58 267.165 205.58C266.534 205.58 265.881 205.58 265.207 205.58C264.532 205.573 263.872 205.569 263.227 205.569C262.427 205.569 261.635 205.573 260.851 205.58C260.059 205.587 259.325 205.598 258.651 205.613C257.969 205.628 257.404 205.65 256.957 205.679C256.957 205.532 256.964 205.309 256.979 205.008C256.993 204.707 257.012 204.377 257.034 204.018C257.056 203.651 257.085 203.296 257.122 202.951C257.151 202.606 257.184 202.313 257.221 202.071C257.91 201.594 258.614 201.136 259.333 200.696C260.044 200.249 260.763 199.827 261.489 199.431C262.207 199.028 262.926 198.65 263.645 198.298C264.363 197.939 265.071 197.605 265.768 197.297L257.155 197.748C257.155 197.528 257.166 197.26 257.188 196.945C257.21 196.622 257.235 196.292 257.265 195.955C257.294 195.61 257.331 195.295 257.375 195.009C257.419 194.716 257.463 194.496 257.507 194.349C257.822 194.327 258.185 194.305 258.596 194.283C258.999 194.254 259.435 194.232 259.905 194.217C260.367 194.202 260.847 194.188 261.346 194.173C261.837 194.158 262.332 194.147 262.831 194.14C263.322 194.133 263.795 194.129 264.25 194.129C264.99 194.129 265.724 194.14 266.45 194.162C267.168 194.177 267.839 194.202 268.463 194.239C269.079 194.268 269.599 194.302 270.025 194.338C270.443 194.375 270.721 194.415 270.861 194.459C270.868 194.665 270.875 194.885 270.883 195.119C270.883 195.347 270.883 195.578 270.883 195.812C270.883 196.157 270.875 196.494 270.861 196.824C270.846 197.147 270.82 197.418 270.784 197.638C270.652 197.712 270.428 197.836 270.113 198.012C269.79 198.181 269.401 198.39 268.947 198.639C268.485 198.888 267.982 199.16 267.44 199.453C266.897 199.746 266.343 200.047 265.779 200.355C265.207 200.663 264.649 200.967 264.107 201.268C263.564 201.569 263.065 201.844 262.611 202.093C262.816 202.071 263.128 202.049 263.546 202.027C263.964 202.005 264.448 201.987 264.998 201.972C265.548 201.95 266.12 201.932 266.714 201.917C267.3 201.902 267.876 201.888 268.441 201.873C268.998 201.858 269.5 201.847 269.948 201.84C270.388 201.833 270.725 201.829 270.96 201.829ZM268.32 180.728C268.782 181.095 269.218 181.546 269.629 182.081C270.039 182.609 270.377 183.211 270.641 183.885C270.897 184.56 271.026 185.297 271.026 186.096C271.026 187.116 270.846 188.018 270.487 188.802C270.12 189.587 269.603 190.247 268.936 190.782C268.268 191.318 267.484 191.725 266.582 192.003C265.672 192.275 264.679 192.41 263.601 192.41C262.2 192.41 260.95 192.168 259.85 191.684C258.75 191.2 257.884 190.496 257.254 189.572C256.623 188.648 256.308 187.519 256.308 186.184C256.308 185.099 256.539 184.094 257.001 183.17C257.455 182.239 258.141 181.509 259.058 180.981C259.278 181.179 259.523 181.443 259.795 181.773C260.059 182.096 260.315 182.426 260.565 182.763C260.807 183.093 261.005 183.379 261.159 183.621C261.078 183.651 260.942 183.724 260.752 183.841C260.561 183.951 260.359 184.105 260.147 184.303C259.934 184.501 259.754 184.751 259.608 185.051C259.454 185.352 259.377 185.704 259.377 186.107C259.377 186.489 259.472 186.833 259.663 187.141C259.846 187.449 260.114 187.713 260.466 187.933C260.818 188.153 261.236 188.322 261.72 188.439C262.204 188.557 262.743 188.615 263.337 188.615C263.901 188.615 264.433 188.564 264.932 188.461C265.43 188.359 265.874 188.208 266.263 188.01C266.644 187.812 266.941 187.559 267.154 187.251C267.366 186.936 267.473 186.573 267.473 186.162C267.473 185.759 267.399 185.381 267.253 185.029C267.099 184.677 266.897 184.347 266.648 184.039C266.398 183.731 266.131 183.449 265.845 183.192C266.028 182.928 266.263 182.635 266.549 182.312C266.835 181.99 267.135 181.685 267.451 181.399C267.766 181.106 268.056 180.882 268.32 180.728ZM271.037 171.305C270.993 172.023 270.949 172.735 270.905 173.439C270.868 174.143 270.839 174.858 270.817 175.584C270.787 176.17 270.758 176.768 270.729 177.377C270.692 177.985 270.659 178.587 270.63 179.181C269.398 179.232 268.202 179.269 267.044 179.291C265.878 179.305 264.785 179.313 263.766 179.313C262.13 179.313 260.741 179.298 259.597 179.269C258.453 179.239 257.631 179.21 257.133 179.181C256.876 177.795 256.689 176.511 256.572 175.331C256.447 174.15 256.37 173.164 256.341 172.372C256.311 171.572 256.297 171.074 256.297 170.876C256.773 170.876 257.243 170.89 257.705 170.92C258.159 170.949 258.64 170.986 259.146 171.03L259.531 175.738C259.626 175.745 259.776 175.752 259.982 175.76C260.18 175.767 260.4 175.774 260.642 175.782C260.876 175.782 261.096 175.782 261.302 175.782C261.507 175.782 261.657 175.782 261.753 175.782C261.753 175.613 261.753 175.397 261.753 175.133C261.745 174.861 261.738 174.568 261.731 174.253C261.723 173.93 261.716 173.607 261.709 173.285C261.701 172.962 261.698 172.661 261.698 172.383C261.69 172.097 261.683 171.855 261.676 171.657L264.69 171.701C264.69 171.796 264.686 171.983 264.679 172.262C264.664 172.54 264.649 172.863 264.635 173.23C264.62 173.589 264.609 173.952 264.602 174.319C264.587 174.685 264.576 175.008 264.569 175.287C264.561 175.565 264.561 175.756 264.569 175.859C264.642 175.866 264.767 175.873 264.943 175.881C265.111 175.881 265.306 175.884 265.526 175.892C265.738 175.892 265.962 175.892 266.197 175.892C266.424 175.892 266.637 175.895 266.835 175.903C267.025 175.903 267.179 175.903 267.297 175.903C267.297 175.807 267.297 175.551 267.297 175.133C267.289 174.715 267.286 174.286 267.286 173.846C267.286 173.479 267.293 173.112 267.308 172.746C267.322 172.379 267.341 172.038 267.363 171.723C267.377 171.407 267.392 171.151 267.407 170.953C267.7 170.953 268.037 170.967 268.419 170.997C268.793 171.026 269.163 171.059 269.53 171.096C269.896 171.125 270.219 171.162 270.498 171.206C270.769 171.242 270.949 171.275 271.037 171.305Z" fill="#152450"/>
</g>
<path d="M244.997 93.0005L178.497 53.5005L177.997 44.0005L244.997 80.5005L244.997 93.0005Z" fill="#152450"/>
<path d="M244.997 71.0005L178.497 36.0005L177.497 27.0005L244.997 60.5005L244.997 71.0005Z" fill="#152450"/>
<path d="M91.9971 232.5L219.997 301L219.997 344L91.9971 259L91.9971 232.5Z" fill="#152450"/>
<path d="M244.997 93.0005L178.497 53.5005L177.997 44.0005L244.997 80.5005L244.997 93.0005Z" fill="#F10300"/>
<path d="M281.997 93.0005L343.997 54.0005L343.997 48.0005L281.997 80.5005L281.997 93.0005Z" fill="#152450"/>
<path d="M281.997 71.0005L348.497 36.0005L349.497 27.0005L281.997 60.5005L281.997 71.0005Z" fill="#152450"/>
<path d="M434.997 232.501L306.997 301L306.997 344L434.997 259.001L434.997 232.501Z" fill="#152450"/>
<path d="M346.997 45.0005L279.997 81.5005L279.997 94.0005L346.497 54.5005L346.997 45.0005Z" fill="#F10300"/>
<defs>
<filter id="filter0_d_208_200" x="0" y="0" width="578.997" height="582" filterUnits="userSpaceOnUse" color-interpolation-filters="sRGB">
<feFlood flood-opacity="0" result="BackgroundImageFix"/>
<feColorMatrix in="SourceAlpha" type="matrix" values="0 0 0 0 0 0 0 0 0 0 0 0 0 0 0 0 0 0 127 0" result="hardAlpha"/>
<feOffset dx="26" dy="11"/>
<feGaussianBlur stdDeviation="16.5"/>
<feComposite in2="hardAlpha" operator="out"/>
<feColorMatrix type="matrix" values="0 0 0 0 0 0 0 0 0 0 0 0 0 0 0 0 0 0 0.25 0"/>
<feBlend mode="normal" in2="BackgroundImageFix" result="effect1_dropShadow_208_200"/>
<feBlend mode="normal" in="SourceGraphic" in2="effect1_dropShadow_208_200" result="shape"/>
</filter>
</defs>
</svg>
