<svg width="118" height="194" viewBox="0 0 118 194" fill="none" xmlns="http://www.w3.org/2000/svg">
<line y1="1" x2="118" y2="1" stroke="white" stroke-width="2"/>
<line y1="18" x2="118" y2="18" stroke="white" stroke-width="2"/>
<line y1="6" x2="118" y2="6" stroke="white" stroke-width="2"/>
<line y1="11.5" x2="118" y2="11.5" stroke="white" stroke-width="3"/>
<line y1="41" x2="118" y2="41" stroke="white" stroke-width="2"/>
<line y1="45" x2="118" y2="45" stroke="white" stroke-width="2"/>
<line y1="51.5" x2="118" y2="51.5" stroke="white" stroke-width="3"/>
<line y1="32.5" x2="118" y2="32.5" stroke="white" stroke-width="5"/>
<line y1="41" x2="118" y2="41" stroke="white" stroke-width="2"/>
<line y1="45" x2="118" y2="45" stroke="white" stroke-width="2"/>
<line y1="51.5" x2="118" y2="51.5" stroke="white" stroke-width="3"/>
<line y1="32.5" x2="118" y2="32.5" stroke="white" stroke-width="5"/>
<line y1="23.5" x2="118" y2="23.5" stroke="white" stroke-width="3"/>
<line y1="57" x2="118" y2="57" stroke="white" stroke-width="2"/>
<line y1="74" x2="118" y2="74" stroke="white" stroke-width="2"/>
<line y1="63" x2="118" y2="63" stroke="white" stroke-width="2"/>
<line y1="68.5" x2="118" y2="68.5" stroke="white" stroke-width="3"/>
<line y1="97" x2="118" y2="97" stroke="white" stroke-width="2"/>
<line y1="102" x2="118" y2="102" stroke="white" stroke-width="2"/>
<line y1="108.5" x2="118" y2="108.5" stroke="white" stroke-width="3"/>
<line y1="88.5" x2="118" y2="88.5" stroke="white" stroke-width="5"/>
<line y1="97" x2="118" y2="97" stroke="white" stroke-width="2"/>
<line y1="102" x2="118" y2="102" stroke="white" stroke-width="2"/>
<line y1="108.5" x2="118" y2="108.5" stroke="white" stroke-width="3"/>
<line y1="88.5" x2="118" y2="88.5" stroke="white" stroke-width="5"/>
<line y1="80.5" x2="118" y2="80.5" stroke="white" stroke-width="3"/>
<line y1="1" x2="118" y2="1" stroke="white" stroke-width="2"/>
<line y1="18" x2="118" y2="18" stroke="white" stroke-width="2"/>
<path d="M0 6H118" stroke="white" stroke-width="2"/>
<line y1="11.5" x2="118" y2="11.5" stroke="white" stroke-width="3"/>
<line y1="41" x2="118" y2="41" stroke="white" stroke-width="2"/>
<line y1="45" x2="118" y2="45" stroke="white" stroke-width="2"/>
<line y1="51.5" x2="118" y2="51.5" stroke="white" stroke-width="3"/>
<line y1="32.5" x2="118" y2="32.5" stroke="white" stroke-width="5"/>
<line y1="41" x2="118" y2="41" stroke="white" stroke-width="2"/>
<line y1="45" x2="118" y2="45" stroke="white" stroke-width="2"/>
<line y1="51.5" x2="118" y2="51.5" stroke="white" stroke-width="3"/>
<line y1="32.5" x2="118" y2="32.5" stroke="white" stroke-width="5"/>
<line y1="23.5" x2="118" y2="23.5" stroke="white" stroke-width="3"/>
<line y1="57" x2="118" y2="66" stroke="white" stroke-width="2"/>
<line y1="74" x2="118" y2="83" stroke="white" stroke-width="2"/>
<line y1="63" x2="118" y2="63" stroke="white" stroke-width="2"/>
<line y1="68.5" x2="118" y2="68.5" stroke="white" stroke-width="3"/>
<line y1="97" x2="118" y2="97" stroke="white" stroke-width="2"/>
<line y1="102" x2="118" y2="102" stroke="white" stroke-width="2"/>
<line y1="108.5" x2="118" y2="108.5" stroke="white" stroke-width="3"/>
<line y1="88.5" x2="118" y2="88.5" stroke="white" stroke-width="5"/>
<line y1="100" x2="118" y2="100" stroke="white" stroke-width="2"/>
<line y1="102" x2="118" y2="102" stroke="white" stroke-width="2"/>
<line y1="108.5" x2="118" y2="108.5" stroke="white" stroke-width="3"/>
<line y1="88.5" x2="118" y2="88.5" stroke="white" stroke-width="5"/>
<line y1="80.5" x2="118" y2="80.5" stroke="white" stroke-width="3"/>
<line y1="113" x2="118" y2="113" stroke="white" stroke-width="2"/>
<line y1="130" x2="118" y2="130" stroke="white" stroke-width="2"/>
<line y1="118" x2="118" y2="118" stroke="white" stroke-width="2"/>
<line y1="123.5" x2="118" y2="123.5" stroke="white" stroke-width="3"/>
<line y1="153" x2="118" y2="153" stroke="white" stroke-width="2"/>
<line y1="157" x2="118" y2="157" stroke="white" stroke-width="2"/>
<line y1="163.5" x2="118" y2="163.5" stroke="white" stroke-width="3"/>
<line y1="144.5" x2="118" y2="144.5" stroke="white" stroke-width="5"/>
<line y1="153" x2="118" y2="153" stroke="white" stroke-width="2"/>
<line y1="157" x2="118" y2="157" stroke="white" stroke-width="2"/>
<line y1="163.5" x2="118" y2="163.5" stroke="white" stroke-width="3"/>
<line y1="144.5" x2="118" y2="144.5" stroke="white" stroke-width="5"/>
<line y1="136.5" x2="118" y2="136.5" stroke="white" stroke-width="3"/>
<line y1="170" x2="118" y2="170" stroke="white" stroke-width="2"/>
<line y1="186" x2="118" y2="186" stroke="white" stroke-width="2"/>
<line y1="175" x2="118" y2="175" stroke="white" stroke-width="2"/>
<line y1="180.5" x2="118" y2="180.5" stroke="white" stroke-width="3"/>
<line y1="192.5" x2="118" y2="192.5" stroke="white" stroke-width="3"/>
<line y1="113" x2="118" y2="113" stroke="white" stroke-width="2"/>
<line y1="130" x2="118" y2="130" stroke="white" stroke-width="2"/>
<line y1="118" x2="118" y2="118" stroke="white" stroke-width="2"/>
<line y1="123.5" x2="118" y2="123.5" stroke="white" stroke-width="3"/>
<line y1="153" x2="118" y2="153" stroke="white" stroke-width="2"/>
<line y1="157" x2="118" y2="157" stroke="white" stroke-width="2"/>
<line y1="163.5" x2="118" y2="163.5" stroke="white" stroke-width="3"/>
<line y1="144.5" x2="118" y2="144.5" stroke="white" stroke-width="5"/>
<line y1="153" x2="118" y2="153" stroke="white" stroke-width="2"/>
<line y1="157" x2="118" y2="157" stroke="white" stroke-width="2"/>
<line y1="163.5" x2="118" y2="163.5" stroke="white" stroke-width="3"/>
<line y1="144.5" x2="118" y2="145.5" stroke="white" stroke-width="5"/>
<line y1="136.5" x2="118" y2="137.5" stroke="white" stroke-width="3"/>
<line y1="170" x2="118" y2="171" stroke="white" stroke-width="2"/>
<line y1="186" x2="118" y2="187" stroke="white" stroke-width="2"/>
<line y1="175" x2="118" y2="176" stroke="white" stroke-width="2"/>
</svg>
