<svg width="118" height="208" viewBox="0 0 118 208" fill="none" xmlns="http://www.w3.org/2000/svg">
<path d="M0 160H118M0 156H118" stroke="white" stroke-width="3"/>
<path d="M0 111H118M0 107H118" stroke="white" stroke-width="3"/>
<path d="M0 164.5H118" stroke="white" stroke-width="3"/>
<path d="M0 115.5H118" stroke="white" stroke-width="3"/>
<line y1="169.5" x2="118" y2="169.5" stroke="white" stroke-width="5"/>
<line y1="121.5" x2="118" y2="121.5" stroke="white" stroke-width="5"/>
<path d="M0 170.5H118" stroke="white" stroke-width="5"/>
<path d="M0 121.5H118" stroke="white" stroke-width="5"/>
<line y1="190.5" x2="118" y2="190.5" stroke="white" stroke-width="5"/>
<line y1="140.5" x2="118" y2="140.5" stroke="white" stroke-width="5"/>
<line y1="176.5" x2="118" y2="176.5" stroke="white" stroke-width="5"/>
<line y1="127.5" x2="118" y2="127.5" stroke="white" stroke-width="5"/>
<line y1="196.5" x2="118" y2="196.5" stroke="white" stroke-width="5"/>
<line y1="145.5" x2="118" y2="145.5" stroke="white" stroke-width="3"/>
<line y1="202.5" x2="118" y2="202.5" stroke="white" stroke-width="3"/>
<line y1="148.5" x2="118" y2="148.5" stroke="white" stroke-width="3"/>
<path d="M0 207H118" stroke="white" stroke-width="2"/>
<path d="M0 152H118" stroke="white" stroke-width="2"/>
<path d="M0 185H118" stroke="white" stroke-width="2"/>
<path d="M0 136H118" stroke="white" stroke-width="2"/>
<path d="M0 181H118" stroke="white" stroke-width="2"/>
<path d="M0 133H118" stroke="white" stroke-width="2"/>
<path d="M0 55H118M0 51H118" stroke="white" stroke-width="3"/>
<path d="M0 6H118M0 2H118" stroke="white" stroke-width="3"/>
<path d="M0 59.5H118" stroke="white" stroke-width="3"/>
<path d="M0 10.5H118" stroke="white" stroke-width="3"/>
<line y1="64.5" x2="118" y2="64.5" stroke="white" stroke-width="5"/>
<line y1="16.5" x2="118" y2="16.5" stroke="white" stroke-width="5"/>
<path d="M0 65.5H118" stroke="white" stroke-width="5"/>
<path d="M0 16.5H118" stroke="white" stroke-width="5"/>
<line y1="85.5" x2="118" y2="85.5" stroke="white" stroke-width="5"/>
<line y1="35.5" x2="118" y2="35.5" stroke="white" stroke-width="5"/>
<line y1="71.5" x2="118" y2="71.5" stroke="white" stroke-width="5"/>
<line y1="22.5" x2="118" y2="22.5" stroke="white" stroke-width="5"/>
<line y1="91.5" x2="118" y2="91.5" stroke="white" stroke-width="5"/>
<line y1="40.5" x2="118" y2="40.5" stroke="white" stroke-width="3"/>
<line y1="97.5" x2="118" y2="97.5" stroke="white" stroke-width="3"/>
<line y1="43.5" x2="118" y2="43.5" stroke="white" stroke-width="3"/>
<path d="M0 102H118" stroke="white" stroke-width="2"/>
<path d="M0 47H118" stroke="white" stroke-width="2"/>
<path d="M0 80H118" stroke="white" stroke-width="2"/>
<path d="M0 31H118" stroke="white" stroke-width="2"/>
<path d="M0 76H118" stroke="white" stroke-width="2"/>
<path d="M0 28H118" stroke="white" stroke-width="2"/>
</svg>
